<svg width="36" height="36" viewBox="0 0 36 36" fill="none" xmlns="http://www.w3.org/2000/svg">
<path d="M31.8858 20.3141H20.3143V31.8855C20.3143 32.4993 20.0705 33.088 19.6365 33.522C19.2025 33.956 18.6138 34.1998 18 34.1998C17.3863 34.1998 16.7976 33.956 16.3636 33.522C15.9296 33.088 15.6858 32.4993 15.6858 31.8855V20.3141H4.11433C3.50055 20.3141 2.9119 20.0703 2.47789 19.6363C2.04388 19.2022 1.80005 18.6136 1.80005 17.9998C1.80005 17.386 2.04388 16.7974 2.47789 16.3634C2.9119 15.9293 3.50055 15.6855 4.11433 15.6855H15.6858V4.11409C15.6858 3.5003 15.9296 2.91166 16.3636 2.47764C16.7976 2.04363 17.3863 1.7998 18 1.7998C18.6138 1.7998 19.2025 2.04363 19.6365 2.47764C20.0705 2.91166 20.3143 3.5003 20.3143 4.11409V15.6855H31.8858C32.4996 15.6855 33.0882 15.9293 33.5222 16.3634C33.9562 16.7974 34.2 17.386 34.2 17.9998C34.2 18.6136 33.9562 19.2022 33.5222 19.6363C33.0882 20.0703 32.4996 20.3141 31.8858 20.3141Z" fill="#FF855B"/>
</svg>
