<svg width="36" height="36" viewBox="0 0 36 36" fill="none" xmlns="http://www.w3.org/2000/svg">
<path d="M17.7944 30C17.7944 30.3978 17.6384 30.7794 17.3607 31.0607C17.0831 31.342 16.7065 31.5 16.3138 31.5C8.82776 31.5 2.69995 25.49 2.69995 18C2.69995 10.51 8.82776 4.5 16.3138 4.5C22.4436 4.5 27.6633 8.53 29.3531 14.102L30.5436 12.062C30.7433 11.7193 31.0692 11.4711 31.4496 11.3719C31.8301 11.2727 32.2338 11.3306 32.572 11.533C32.9102 11.7354 33.1553 12.0656 33.2532 12.4509C33.3511 12.8363 33.2939 13.2453 33.0942 13.588L29.8763 19.098C29.6793 19.436 29.3593 19.6823 28.985 19.784C28.6108 19.8857 28.2121 19.8347 27.8745 19.642L22.3034 16.46C22.134 16.3632 21.985 16.2336 21.8651 16.0785C21.7451 15.9234 21.6565 15.7459 21.6042 15.5561C21.552 15.3662 21.5371 15.1679 21.5606 14.9723C21.584 14.7767 21.6452 14.5876 21.7408 14.416C21.8363 14.2444 21.9643 14.0935 22.1174 13.9719C22.2705 13.8504 22.4457 13.7606 22.633 13.7077C22.8204 13.6547 23.0162 13.6397 23.2093 13.6635C23.4024 13.6872 23.5889 13.7492 23.7584 13.846L26.6643 15.506C25.5312 10.93 21.3519 7.5 16.3158 7.5C10.3972 7.5 5.6612 12.234 5.6612 18C5.6612 23.766 10.3972 28.5 16.3138 28.5C16.7065 28.5 17.0831 28.658 17.3607 28.9393C17.6384 29.2206 17.7944 29.6022 17.7944 30Z" fill="#FF855B"/>
</svg>
