<svg width="36" height="36" viewBox="0 0 36 36" fill="none" xmlns="http://www.w3.org/2000/svg">
<path d="M16.8595 3.60204C16.4817 3.60324 16.0639 3.77677 15.6826 4.16599L8.95177 11.9613H3.87687C3.22839 11.9613 2.69995 12.5023 2.69995 13.1663V22.8065C2.69995 23.4704 3.22839 24.0115 3.87687 24.0115H8.95295L15.6461 31.7694C16.823 32.9744 18 32.3575 18 30.715V5.06855C18 4.11538 17.4904 3.59601 16.8595 3.59963V3.60204ZM25.3922 6.01208C25.1419 6.05679 24.9125 6.18324 24.7381 6.37253C24.5638 6.56181 24.454 6.80377 24.4252 7.06224C24.3963 7.32071 24.4499 7.58181 24.578 7.8065C24.706 8.0312 24.9017 8.20743 25.1356 8.30885C26.8868 9.20979 28.3581 10.5925 29.3844 12.302C30.4108 14.0114 30.9516 15.9798 30.9461 17.9864C30.9461 22.2329 28.5923 25.8793 25.1345 27.6639C24.9771 27.72 24.8332 27.8096 24.7122 27.9269C24.5912 28.0441 24.4959 28.1864 24.4326 28.3441C24.3693 28.5019 24.3394 28.6717 24.345 28.8422C24.3505 29.0127 24.3914 29.18 24.4648 29.3331C24.5382 29.4862 24.6426 29.6217 24.7709 29.7304C24.8993 29.8392 25.0487 29.9188 25.2094 29.964C25.37 30.0092 25.5382 30.0189 25.7029 29.9926C25.8675 29.9663 26.0247 29.9045 26.1643 29.8113C30.393 27.6266 33.3 23.1535 33.3 17.9864C33.3 12.8192 30.3918 8.34621 26.1643 6.1615C25.9629 6.04641 25.7329 5.99445 25.5028 6.01208C25.466 6.01031 25.4291 6.01031 25.3922 6.01208ZM22.597 10.6803C22.3436 10.6994 22.103 10.8019 21.9112 10.9726C21.7194 11.1432 21.5867 11.3728 21.533 11.6271C21.4792 11.8814 21.5072 12.1466 21.6129 12.3832C21.7186 12.6198 21.8962 12.8151 22.1192 12.9398C23.9352 14.0954 25.0615 15.9258 25.0615 17.9864C25.0615 20.0614 23.9175 21.916 22.0827 23.0704C21.9386 23.1474 21.8116 23.2541 21.7097 23.3838C21.6079 23.5136 21.5334 23.6635 21.4909 23.8242C21.4485 23.9849 21.439 24.1529 21.4632 24.3175C21.4873 24.4821 21.5445 24.6398 21.6311 24.7807C21.7177 24.9216 21.8319 25.0426 21.9664 25.136C22.101 25.2294 22.253 25.2933 22.4128 25.3236C22.5727 25.3539 22.737 25.35 22.8953 25.3121C23.0536 25.2741 23.2025 25.203 23.3326 25.1032C25.7688 23.5729 27.4153 20.97 27.4153 17.9864C27.4153 15.0208 25.783 12.4035 23.3691 10.8695C23.1719 10.7405 22.9416 10.6747 22.7077 10.6803C22.6708 10.6786 22.6339 10.6786 22.597 10.6803Z" fill="#FF855B"/>
</svg>
