<svg width="118" height="34" viewBox="0 0 118 34" fill="none" xmlns="http://www.w3.org/2000/svg">
<g clip-path="url(#clip0_1378_1549)">
<path d="M102.31 0.202019C106.028 -0.0903271 112.147 0.234805 114.527 3.58449C116.009 5.6719 115.617 9.14453 113.006 10.1035C108.786 11.65 105.774 7.691 102.119 7.68826C100.863 7.68826 100.091 8.59809 100.903 9.72922C102.119 11.4177 108.612 12.4123 110.825 13.3084C116.296 15.5188 118.359 20.1663 116.748 25.8738C114.126 35.1661 98.99 35.8409 92.5409 30.8191C87.223 26.6771 89.8643 18.2291 97.33 20.8274C100.181 21.8192 101.528 24.7236 104.117 25.4995C107.576 26.5378 107.966 23.0706 105.158 21.4504C100.617 18.8302 91.0854 19.7373 90.2513 12.3494C89.4254 5.05988 95.7682 0.715674 102.315 0.202019H102.31Z" fill="white"/>
<path d="M42.6549 10.1471C42.6385 10.729 41.938 12.7263 42.2188 13.0815C42.5977 13.5596 45.2825 13.4558 45.9857 13.4203C48.7442 13.2782 54.6017 11.4039 55.1687 15.6798C55.6048 18.9748 53.0726 20.1579 50.3033 20.6142C47.5339 21.0704 44.522 20.942 41.69 20.3819C41.8808 23.3409 41.8699 25.2972 45.4351 25.0239C49.0195 24.748 50.8948 21.3874 54.9152 22.0814C58.0743 22.6251 59.2 26.7398 57.9707 29.3955C55.4494 34.8517 42.7666 34.4063 38.073 32.543C29.1244 28.9911 31.3541 17.7945 34.4641 10.8192C29.9121 10.3984 29.904 2.9204 33.3029 1.11441C35.9414 -0.287211 40.5397 1.01332 43.6689 0.849387C47.9019 0.628078 55.1333 -1.68883 55.1905 5.14715C55.2423 11.2454 46.7217 10.6225 42.6522 10.1471H42.6549Z" fill="white"/>
<path d="M75.3253 0.065458C78.6916 -0.199566 84.0885 0.232122 85.8303 3.66104C86.9478 5.85774 86.2718 9.16371 83.696 9.95878C80.7686 10.8631 77.6095 9.01343 74.4122 10.3522C68.3666 12.885 68.6609 25.4395 76.1022 24.6143C78.201 24.3821 79.4166 22.3275 81.1611 21.4887C88.5914 17.9122 91.985 28.6525 84.124 32.2454C76.6964 35.6388 64.3134 33.7891 60.6092 25.6635C55.4794 14.3986 62.8797 1.04632 75.3253 0.065458Z" fill="white"/>
<path d="M26.6493 18.8276C30.3945 14.9096 30.588 7.22114 26.2895 3.64195C21.8521 -0.0574555 14.7134 0.986247 9.31647 0.849637C6.52533 0.7786 3.19177 -0.349802 1.14203 2.20754C-0.384373 4.11189 -0.509757 8.5408 1.55362 10.1309C2.156 10.5954 2.75293 10.6009 3.39893 10.9042C3.32533 12.7129 3.47798 14.538 3.39075 16.344C3.20268 20.3057 1.10387 28.4121 3.279 31.6225C5.38598 34.7372 11.9114 34.4421 13.2306 30.7154C14.0974 28.2701 12.6882 25.9586 12.7945 23.516C17.4364 23.322 23.2885 22.3384 26.6493 18.8248V18.8276ZM12.4538 14.6418C12.1594 13.8959 11.8759 9.6692 12.2821 9.20746C12.4183 9.05445 13.803 8.81675 14.1083 8.78123C15.7246 8.60364 18.2705 8.60637 19.2626 10.1364C20.1267 11.467 19.4071 13.6254 18.156 14.4779C17.0221 15.2511 13.0834 16.2374 12.4511 14.6391L12.4538 14.6418Z" fill="white"/>
</g>
<defs>
<clipPath id="clip0_1378_1549">
<rect width="117.277" height="33.9231" fill="white"/>
</clipPath>
</defs>
</svg>
