<svg width="126" height="68" viewBox="0 0 126 68" fill="none" xmlns="http://www.w3.org/2000/svg">
<path d="M21.9725 30.7192C22.0127 30.5039 22.0288 30.4657 22.0268 30.4295C21.8678 27.6264 21.8658 27.6365 19.1271 26.9543C16.1187 26.2037 13.209 25.2157 10.7479 23.2316C7.14593 20.3259 6.23235 16.4201 6.95275 12.1119C7.68925 7.70305 10.5145 4.99254 14.7141 3.65841C16.8774 2.97022 19.0929 2.68247 21.3265 3.17748C22.2723 3.38676 23.1577 3.86567 24.1679 4.26008C27.4519 0.388493 32.1124 -0.0159706 36.9439 0.195316C40.6224 0.356297 44.2183 0.982109 47.6151 2.49331C53.169 4.96437 55.6783 9.14382 55.4207 15.4905C55.2115 20.6539 52.1025 24.6644 46.6794 26.5156C44.7959 27.1596 42.8077 27.5097 40.8518 27.9061C40.1998 28.0389 39.9221 28.2462 39.9 28.9203C39.8738 29.7574 39.737 30.5925 39.6243 31.6388C42.1074 31.4497 44.4759 31.2887 46.8403 31.0855C49.6777 30.84 52.5089 30.4758 55.3503 30.3369C56.3866 30.2866 57.4833 30.6287 58.4875 30.9808C60.0329 31.5241 61.035 32.6671 61.4616 34.2689C61.9204 35.9873 61.8902 37.7118 61.3167 39.386C60.6547 41.3158 59.1415 42.2958 57.2318 42.7586C54.4367 43.4367 51.6256 43.0826 48.8245 42.8592C41.9626 42.3098 35.1167 42.4145 28.2609 43.0544C21.89 43.65 15.507 44.3281 9.09986 43.6359C7.47192 43.4588 5.81581 43.1027 4.28647 42.5252C1.27407 41.3882 -0.20295 39.0097 0.0224265 36.1121C0.263901 32.9991 1.92605 31.1257 5.17187 30.2645C8.44587 29.3952 11.7561 29.6648 15.0603 29.9526C17.3502 30.1518 19.6322 30.4556 21.9725 30.7192ZM32.0359 12.6914C30.2289 12.8283 28.2709 13.0053 26.3069 13.114C25.2948 13.1704 24.7635 13.6815 24.5341 14.6152C24.3027 15.5549 24.6005 16.3296 25.3954 16.8105C25.9407 17.1405 26.5907 17.388 27.2205 17.4746C30.41 17.9132 33.6075 17.9132 36.7809 17.3277C38.3143 17.0439 39.1111 16.1103 39.0447 14.8566C38.9844 13.7418 38.1412 13.0315 36.5837 12.9088C35.1228 12.792 33.6558 12.7659 32.0319 12.6914H32.0359Z" fill="white"/>
<path d="M97.9323 44.9373C95.5176 44.9373 93.3222 44.9856 91.1288 44.9272C85.9653 44.7884 80.7997 44.6455 75.6402 44.392C74.4006 44.3316 73.1329 43.9613 71.9678 43.5025C70.3841 42.8787 69.6275 41.5466 69.6396 39.8483C69.6516 38.1298 70.3841 36.8118 71.9778 36.0431C73.9197 35.1054 76.0145 34.9987 78.0892 35.1315C82.7033 35.4294 87.3095 35.864 91.9216 36.2242C97.3568 36.6488 102.782 36.4979 108.215 36.0471C110.35 35.87 112.531 35.9425 114.665 36.1578C116.486 36.3409 118.12 37.1317 118.679 39.1259C119.244 41.1422 118.562 42.8385 117.13 44.2732C116.733 44.6717 116.276 45.0077 115.84 45.378C115.944 45.4725 115.874 45.3337 115.93 45.3397C118.095 45.5611 119.222 47.3379 119.518 48.9537C119.921 51.1551 119.057 53.2499 117.085 53.918C115.21 54.5538 113.208 54.9221 111.234 55.1334C103.929 55.9161 96.6968 55.735 89.368 55.403C89.0521 55.3889 88.4846 55.4453 88.1607 55.6042C87.7582 56.4092 87.9594 57.0128 88.5973 57.4092C88.9595 57.6346 89.4888 57.6185 89.9476 57.6447C98.2422 58.0994 106.523 58.0532 114.767 56.8559C115.562 56.7412 116.389 56.7392 117.19 56.8116C118.582 56.9364 119.913 57.3086 120.371 58.854C120.86 60.5061 120.977 62.2407 119.552 63.4641C118.623 64.263 117.423 64.9995 116.246 65.2148C112.463 65.905 108.65 66.5429 104.82 66.8326C96.5318 67.4605 88.2351 67.1606 79.9908 66.1646C77.4311 65.8547 74.8896 65.0317 72.4588 64.1282C70.4988 63.3977 69.1305 61.8966 69.1767 59.5603C69.2009 58.3671 69.6396 57.3831 70.694 56.7472C71.4446 56.2945 71.9698 55.562 71.0542 55.1112C69.39 54.2902 68.6696 52.7146 68.895 50.6561C69.1023 48.7646 70.3036 47.1266 72.1549 46.9515C74.4349 46.7362 76.755 46.9294 79.0591 46.9777C84.456 47.0864 89.851 47.2433 95.2479 47.3077C96.1998 47.3198 98.4233 47.358 97.9323 44.9433V44.9373Z" fill="white"/>
<path d="M84.1606 33.2212C79.9951 33.1306 75.3206 32.6759 70.8976 30.8769C67.8993 29.6575 65.6214 27.7156 65.1102 24.2586C64.6353 21.051 65.889 18.2761 68.6478 16.5657C68.845 16.443 69.0905 16.3222 69.2475 16.1633C69.493 15.9158 69.6801 15.6622 69.8955 15.3845C69.8512 15.1571 69.3501 15.0203 69.0463 14.9559C67.1688 14.5615 65.6737 13.6479 64.8607 11.8208C62.8605 7.32946 65.5368 2.29882 70.4005 1.77362C72.437 1.55428 74.566 1.75551 76.6024 2.07948C80.3533 2.67712 84.0419 2.41955 87.7706 1.93862C89.8091 1.67502 91.934 1.56837 93.9604 1.84204C96.4315 2.17607 98.1339 3.74563 98.7195 6.27705C99.9128 11.4425 97.2505 15.2074 91.7851 15.789C89.1551 16.0687 86.4767 15.952 83.8225 15.9298C82.4723 15.9178 80.796 17.8717 81.3876 19.081C81.6191 19.5539 82.4904 20.0167 83.0417 19.9825C85.4545 19.8356 87.8592 19.5137 90.2638 19.238C91.4873 19.0971 92.7048 18.8416 93.9302 18.7712C98.3271 18.5176 100.85 21.1094 100.635 25.5907C100.49 28.599 98.6551 30.8165 95.3529 31.8428C91.8958 32.9173 88.328 33.2011 84.1646 33.2212H84.1606Z" fill="white"/>
<path d="M32.8228 67.2765C27.3896 67.0753 21.3165 66.7332 15.3058 66.0993C12.9192 65.8478 10.6554 65.0168 8.72966 63.4935C6.39541 61.6462 5.59854 59.2094 6.01508 56.3137C6.19619 55.0581 6.48395 53.7964 6.48395 52.5387C6.48395 48.7537 8.74173 47.2525 11.4181 46.6791C14.2514 46.0713 17.0887 46.0049 19.8536 46.997C23.1075 48.1641 24.176 50.454 23.0431 53.7179C22.705 54.6919 23.2765 54.9555 24.0049 54.9253C26.6169 54.8126 29.2389 54.7402 31.8348 54.4484C37.0727 53.8588 42.2846 52.9955 47.5326 52.5428C49.5831 52.3657 51.7645 52.7681 53.7767 53.3135C55.8796 53.8829 57.1836 55.5088 57.4914 57.7445C57.8577 60.4107 57.2258 62.7127 54.8936 64.3326C52.835 65.7633 50.4645 66.3308 48.0437 66.5521C43.172 66.9948 38.0567 67.2805 32.8248 67.2805L32.8228 67.2765Z" fill="white"/>
<path d="M118.838 9.71246C124.509 9.1772 125.984 12.1533 126 16.4374C126.006 17.838 125.779 19.2868 125.374 20.629C124.652 23.0356 122.835 24.2088 120.311 24.1886C119.814 24.1846 119.319 24.1886 118.87 24.1886C118.87 25.4865 118.951 26.8166 118.856 28.1327C118.567 32.1371 116.548 34.3183 112.584 34.9099C110.535 35.2138 108.493 35.0971 106.573 34.2318C103.575 32.8816 102.754 30.2174 102.748 27.2855C102.744 25.1465 103.074 22.9934 103.392 20.8664C103.919 17.3329 103.35 13.8839 102.822 10.4147C102.512 8.37431 102.637 6.34193 103.289 4.36791C104.04 2.09406 105.589 0.52651 107.938 0.202537C109.886 -0.0671058 111.94 -0.0771671 113.878 0.230708C116.665 0.673405 118.524 3.0861 118.818 6.17894C118.927 7.31385 118.836 8.46889 118.836 9.71045L118.838 9.71246Z" fill="white"/>
</svg>
